<svg xmlns="http://www.w3.org/2000/svg" xmlns:xlink="http://www.w3.org/1999/xlink" xmlns:lucid="lucid" width="1709.41" height="960"><g transform="translate(-50.592592592592595 -60)" lucid:page-tab-id="0_0"><path d="M0 0h1870.87v1322.84H0z" fill="#fff"/><path d="M360 142a30 30 0 0 1 30-30h1320a30 30 0 0 1 30 30v828a30 30 0 0 1-30 30H390a30 30 0 0 1-30-30z" stroke="#474747" stroke-width="4" fill-opacity="0"/><path d="M468 114.4v3.54c0 6.42-7.1 13.06-15.76 13.06h-46.48c-8.66 0-15.75-6.64-15.75-13.06v-3.53z" fill="#9d5125"/><path d="M420.03 80c8.03 0 14.82 4.4 18.17 11.67 4.6-3.14 10.92-1.98 14.04 2.65 1.17 1.64 1.7 3.33 1.8 5.3 7.87.68 13.95 8.25 13.95 14.27v1.3c0 6.45-7.1 13-15.76 13h-46.5c-8.64 0-15.74-6.55-15.74-13v-1.3c0-5.02 4.2-11.87 10.06-13.56v-.57c.08-10.95 8.97-19.82 19.97-19.77z" fill="#f58535"/><path d="M409.54 103.13l-5.2 18.2h3.04l1.17-4.43h5.38l1.1 4.42h3.05l-4.78-18.2zm-.47 11.4l2.22-8.98 2.1 8.97zM431.2 117.34h-.03l-2.47-14.2h-3.1l-2.4 14.13h-.06l-2.4-14.14h-2.95l3.53 18.2h3.38l2.35-13.7h.06l2.36 13.7h3.4l3.64-18.2h-2.9l-2.4 14.2zM445.9 111.4l-1.98-.72c-1.93-.7-2.75-1.53-2.75-3.1-.16-1.26.75-2.43 2.02-2.6.14-.02.28-.02.43-.02 1.26-.17 2.4.72 2.58 1.96.04.25.03.44 0 .68v.38h2.93v-.4c0-1.9-.5-4.8-5.18-4.8-3.44 0-5.7 1.84-5.7 5.16 0 2.6 1.1 3.97 3.82 4.98l2 .7c1.6.23 2.73 1.6 2.64 3.2.04 1.45-1.08 2.64-2.5 2.68h-.28c-2 0-3-1.12-3-3.33v-.47h-2.9v.44c0 2.54 1.02 5.53 5.52 5.53 3.7 0 6.07-1.6 6.07-5.48.04-2.5-1.1-3.9-3.7-4.8z" fill="#fff"/><use xlink:href="#a" transform="matrix(1,0,0,1,360,970) translate(635.5246913580247 11.11111111111111)"/><use xlink:href="#b" transform="matrix(1,0,0,1,360,970) translate(691.4506172839506 11.11111111111111)"/><path d="M500 222a30 30 0 0 1 30-30h940a30 30 0 0 1 30 30v668a30 30 0 0 1-30 30H530a30 30 0 0 1-30-30z" stroke="#474747" stroke-width="4" fill-opacity="0"/><path d="M608 194.4v3.54c0 6.42-7.1 13.06-15.76 13.06h-46.48c-8.66 0-15.75-6.64-15.75-13.06v-3.53z" fill="#9d5125"/><path d="M560.03 160c8.03 0 14.82 4.4 18.17 11.67 4.6-3.14 10.92-1.98 14.04 2.65 1.17 1.64 1.7 3.33 1.8 5.3 7.87.68 13.95 8.25 13.95 14.27v1.3c0 6.45-7.1 13-15.76 13h-46.5c-8.64 0-15.74-6.55-15.74-13v-1.3c0-5.02 4.2-11.87 10.06-13.56v-.57c.08-10.95 8.97-19.82 19.97-19.77z" fill="#f58535"/><path d="M548.9 183.13h3.08l3.1 14.58 3.32-14.53h3.1l-4.6 18.2h-3.7zM563.37 183.13h5.77c3.5 0 5.04 2.2 5.04 5.3 0 3.1-1.9 5.4-5.33 5.4h-2.57v7.53h-2.9zm2.9 8.5h2.08c1.56 0 2.9-.83 2.9-3.14 0-1.98-.78-3.17-3.1-3.17h-1.87zM587.8 194.83v.38c0 3.32-1.3 6.52-5.6 6.52-4.6 0-6.04-2.97-6.04-9.47s1.43-9.46 6.05-9.46c5.2 0 5.54 3.8 5.54 5.7v.37h-2.9v-.3c0-1.7-.5-3.64-2.6-3.57-2.08.08-3.1 1.35-3.1 7.22 0 5.87.92 7.3 3.14 7.3 2.42 0 2.7-2.7 2.7-4.43v-.3z" fill="#fff"/><use xlink:href="#c" transform="matrix(1,0,0,1,500,890) translate(404.5061728395062 11.11111111111111)"/><use xlink:href="#d" transform="matrix(1,0,0,1,500,890) translate(469.7530864197531 11.11111111111111)"/><use xlink:href="#b" transform="matrix(1,0,0,1,500,890) translate(542.4691358024692 11.11111111111111)"/><path d="M600 310.58a30 30 0 0 1 30-30h232.5a30 30 0 0 1 30 30v156.6a30 30 0 0 1-30 30H630a30 30 0 0 1-30-30z" stroke="#474747" stroke-width="4" fill-opacity="0"/><path d="M661.97 268.82v-5.9c0-7.25-5.88-13.13-13.12-13.13-7.24 0-13.12 5.87-13.12 13.12v5.9h6.64v-5.9c0-3.58 2.9-6.5 6.48-6.5 3.57 0 6.48 2.92 6.48 6.5v5.9h6.64z" fill="#876a22"/><path d="M661.98 268.84h5.42v20.84H630v-20.84h5.72v-7.1c0-7.28 5.87-13.16 13.13-13.16 7.25 0 13.13 5.88 13.13 13.15v7.1zm-6.66 0v-7.1c0-3.58-2.88-6.5-6.47-6.5-3.6 0-6.47 2.92-6.47 6.5v7.1h12.94z" fill="#daa835"/><path d="M630 289.68h37.4v.9H630z" fill="#876a22"/><use xlink:href="#e" transform="matrix(1,0,0,1,600,467.16535433070885) translate(70.63580246913583 11.11111111111111)"/><use xlink:href="#f" transform="matrix(1,0,0,1,600,467.16535433070885) translate(137.17901234567904 11.11111111111111)"/><use xlink:href="#g" transform="matrix(1,0,0,1,600,467.16535433070885) translate(210.0185185185185 11.11111111111111)"/><path d="M1140 302a30 30 0 0 1 30-30h260a30 30 0 0 1 30 30v156.58a30 30 0 0 1-30 30h-260a30 30 0 0 1-30-30z" stroke="#474747" stroke-width="4" fill-opacity="0"/><path d="M1201.97 260.24v-5.9c0-7.25-5.88-13.13-13.12-13.13-7.24 0-13.12 5.9-13.12 13.14v5.9h6.64v-5.9c0-3.58 2.9-6.5 6.48-6.5 3.57 0 6.48 2.92 6.48 6.5v5.9h6.64z" fill="#876a22"/><path d="M1201.98 260.26h5.42v20.83H1170v-20.84h5.72v-7.1c0-7.28 5.87-13.16 13.13-13.16 7.26 0 13.13 5.88 13.13 13.15v7.1zm-6.66 0v-7.1c0-3.6-2.88-6.5-6.47-6.5-3.6 0-6.47 2.9-6.47 6.5v7.1h12.94z" fill="#daa835"/><path d="M1170 281.1h37.4v.9H1170z" fill="#876a22"/><use xlink:href="#h" transform="matrix(1,0,0,1,1140,458.5826771653544) translate(77.96296296296296 11.11111111111111)"/><use xlink:href="#i" transform="matrix(1,0,0,1,1140,458.5826771653544) translate(153.14814814814815 11.11111111111111)"/><use xlink:href="#g" transform="matrix(1,0,0,1,1140,458.5826771653544) translate(229.69135802469137 11.11111111111111)"/><path d="M580 278.58a30 30 0 0 1 30-30h840a30 30 0 0 1 30 30v200a30 30 0 0 1-30 30H610a30 30 0 0 1-30-30z" fill-opacity="0"/><path d="M592.37 254.3l4-2.45 4.36-1.8 4.58-1.1h20.12m20.1 0l40.23-.03m20.12 0l40.22-.03m20.1-.02l40.22-.02m20.12 0l40.22-.02m20.1 0l40.24-.03m20.1 0l40.23-.02m20.1 0l40.24-.02m20.1 0l40.23-.03m20.1 0l40.24-.02m20.1 0l40.23-.02m20.1 0l40.24-.03m20.12 0l40.22-.02m20.1 0l40.24-.03m20.1 0l20.12-.02 4.7.37 4.57 1.1 4.35 1.8m10.65 9.1l2.46 4 1.8 4.36 1.1 4.6.04 22.73m.04 22.75l.1 45.48m.04 22.75l.08 45.5m.04 22.74l.04 22.74-.37 4.7-1.1 4.57-1.8 4.35m-9.1 10.65l-4 2.46-4.36 1.8-4.58 1.1-20.12.02m-20.1 0l-40.23.03m-20.12 0l-40.22.02m-20.1 0l-40.22.03m-20.12 0l-40.22.03m-20.1 0l-40.24.02m-20.1 0l-40.23.03m-20.1 0l-40.24.03m-20.1.02H951.9m-20.1.02l-40.24.02m-20.1 0l-40.23.03m-20.1 0h-40.24m-20.12.02l-40.22.02m-20.1 0l-40.24.02m-20.1 0l-20.12.02-4.7-.37-4.57-1.1-4.35-1.8m-10.65-9.08l-2.46-4.02-1.8-4.35-1.1-4.57-.04-22.75m-.04-22.74l-.1-45.5m-.04-22.74l-.08-45.5m-.04-22.73l-.04-22.75.37-4.7 1.1-4.57 1.8-4.34" stroke="#f7981f" stroke-width="4" fill="none"/><use xlink:href="#j" transform="matrix(1,0,0,1,580,478.5826771653544) translate(369.53703703703707 11.11111111111111)"/><use xlink:href="#k" transform="matrix(1,0,0,1,580,478.5826771653544) translate(479.90740740740745 11.11111111111111)"/><path d="M632.5 642a30 30 0 0 1 30-30h220a30 30 0 0 1 30 30v168a30 30 0 0 1-30 30h-220a30 30 0 0 1-30-30z" stroke="#474747" stroke-width="4" fill-opacity="0"/><path d="M694.47 600.24v-5.9c0-7.25-5.88-13.13-13.12-13.13-7.24 0-13.12 5.9-13.12 13.14v5.9h6.64v-5.9c0-3.58 2.9-6.5 6.48-6.5 3.57 0 6.48 2.92 6.48 6.5v5.9h6.64z" fill="#876a22"/><path d="M694.48 600.26h5.42v20.83h-37.4v-20.84h5.72v-7.1c0-7.28 5.87-13.16 13.13-13.16 7.25 0 13.13 5.88 13.13 13.15v7.1zm-6.66 0v-7.1c0-3.58-2.88-6.5-6.47-6.5-3.6 0-6.47 2.92-6.47 6.5v7.1h12.94z" fill="#daa835"/><path d="M662.5 621.1h37.4v.9h-37.4z" fill="#876a22"/><use xlink:href="#e" transform="matrix(1,0,0,1,632.5,810) translate(62.28395061728396 11.11111111111111)"/><use xlink:href="#i" transform="matrix(1,0,0,1,632.5,810) translate(128.82716049382717 11.11111111111111)"/><use xlink:href="#l" transform="matrix(1,0,0,1,632.5,810) translate(205.37037037037038 11.11111111111111)"/><path d="M1140 642a30 30 0 0 1 30-30h267.5a30 30 0 0 1 30 30v168a30 30 0 0 1-30 30H1170a30 30 0 0 1-30-30z" stroke="#474747" stroke-width="4" fill-opacity="0"/><path d="M1201.97 600.24v-5.9c0-7.25-5.88-13.13-13.12-13.13-7.24 0-13.12 5.9-13.12 13.14v5.9h6.64v-5.9c0-3.58 2.9-6.5 6.48-6.5 3.57 0 6.48 2.92 6.48 6.5v5.9h6.64z" fill="#876a22"/><path d="M1201.98 600.26h5.42v20.83H1170v-20.84h5.72v-7.1c0-7.28 5.87-13.16 13.13-13.16 7.26 0 13.13 5.88 13.13 13.15v7.1zm-6.66 0v-7.1c0-3.58-2.88-6.5-6.47-6.5-3.6 0-6.47 2.92-6.47 6.5v7.1h12.94z" fill="#daa835"/><path d="M1170 621.1h37.4v.9H1170z" fill="#876a22"/><use xlink:href="#h" transform="matrix(1,0,0,1,1140,810) translate(81.96296296296296 11.11111111111111)"/><use xlink:href="#i" transform="matrix(1,0,0,1,1140,810) translate(157.14814814814815 11.11111111111111)"/><use xlink:href="#l" transform="matrix(1,0,0,1,1140,810) translate(233.69135802469137 11.11111111111111)"/><path d="M600 621.42a30 30 0 0 1 30-30h820a30 30 0 0 1 30 30v200a30 30 0 0 1-30 30H630a30 30 0 0 1-30-30z" fill-opacity="0"/><path d="M612.37 597.15l4-2.46 4.36-1.8 4.58-1.1 19.64-.02m19.64 0l39.27-.03m19.63 0l39.28-.02m19.63 0l39.26-.03m19.64 0l39.27-.03m19.63 0l39.28-.02m19.63 0l39.28-.03m19.64 0l39.27-.03m19.63-.02h39.27m19.63-.02l39.27-.02m19.64 0l39.27-.03m19.64 0h39.28m19.63-.02l39.27-.02m19.64 0l39.27-.03m19.63 0H1450l4.7.36 4.57 1.1 4.35 1.8m10.65 9.08l2.46 4.02 1.8 4.35 1.1 4.57.04 22.75m.04 22.74l.1 45.5m.04 22.74l.08 45.5m.04 22.73l.04 22.75-.37 4.7-1.1 4.57-1.8 4.34m-9.1 10.65l-4 2.45-4.36 1.8-4.58 1.1h-19.64m-19.64.02h-39.27m-19.63.02h-39.28m-19.63.02l-39.26.02m-19.64 0l-39.27.02m-19.63 0l-39.28.03m-19.63 0h-39.28m-19.64.02l-39.27.02m-19.63 0l-39.27.03m-19.63 0l-39.27.02m-19.64 0l-39.27.02m-19.64 0l-39.28.03m-19.63 0l-39.27.02m-19.64 0l-39.27.03m-19.63 0l-19.64.02-4.7-.37-4.57-1.1-4.35-1.8m-10.65-9.1l-2.46-4-1.8-4.36-1.1-4.6-.04-22.73m-.04-22.75l-.1-45.48m-.04-22.75l-.08-45.5m-.04-22.74l-.04-22.74.37-4.7 1.1-4.57 1.8-4.35" stroke="#f7981f" stroke-width="4" fill="none"/><use xlink:href="#j" transform="matrix(1,0,0,1,600,821.4173228346456) translate(359.53703703703707 11.11111111111111)"/><use xlink:href="#k" transform="matrix(1,0,0,1,600,821.4173228346456) translate(469.90740740740745 11.11111111111111)"/><path d="M1164 338.55a30 30 0 0 1 30-30h198.06a30 30 0 0 1 30 30v100.03a30 30 0 0 1-30 30H1194a30 30 0 0 1-30-30z" stroke="#474747" stroke-width="4" fill-opacity="0"/><path d="M1164 338.55a30 30 0 0 1 30-30h198.06a30 30 0 0 1 30 30v100.03a30 30 0 0 1-30 30H1194a30 30 0 0 1-30-30z" fill="none"/><path d="M1176.36 314.28l4.02-2.46 4.35-1.8 4.57-1.1 22.53-.04m22.53-.04l45.06-.08m22.52-.04l45.06-.1m22.53-.03l22.53-.05 4.7.37 4.57 1.1 4.35 1.8m10.65 9.1l2.46 4 1.8 4.36 1.1 4.58.05 17.45m.06 17.47l.13 34.9m.06 17.46l.06 17.45-.37 4.7-1.1 4.57-1.8 4.35m-9.1 10.65l-4.02 2.46-4.35 1.8-4.58 1.1-22.53.05m-22.53.05l-45.06.08m-22.53.04l-45.05.08m-22.52.04l-22.53.04-4.7-.37-4.57-1.1-4.35-1.8m-10.65-9.08l-2.46-4.02-1.8-4.35-1.1-4.57-.06-17.46m-.06-17.45l-.12-34.9m-.06-17.46l-.06-17.45.37-4.7 1.1-4.57 1.8-4.35" stroke="red" stroke-width="4" fill="none"/><use xlink:href="#m" transform="matrix(1,0,0,1,1163.9972508063972,438.5826771653544) translate(59.83950617283952 11.11111111111111)"/><use xlink:href="#n" transform="matrix(1,0,0,1,1163.9972508063972,438.5826771653544) translate(142.4320987654321 11.11111111111111)"/><path d="M1180 659.98a30 30 0 0 1 30-30h198.06a30 30 0 0 1 30 30v100.04a30 30 0 0 1-30 30H1210a30 30 0 0 1-30-30z" stroke="#474747" stroke-width="4" fill-opacity="0"/><path d="M1180 659.98a30 30 0 0 1 30-30h198.06a30 30 0 0 1 30 30v100.04a30 30 0 0 1-30 30H1210a30 30 0 0 1-30-30z" fill="none"/><path d="M1192.37 635.7l4-2.45 4.36-1.8 4.58-1.1 22.54-.04m22.52-.03l45.06-.08m22.53-.05l45.05-.08m22.53-.04l22.53-.05 4.7.37 4.57 1.1 4.35 1.8m10.65 9.1l2.46 4 1.8 4.36 1.1 4.6.05 17.45m.06 17.45l.14 34.9m.06 17.46l.06 17.46-.37 4.7-1.1 4.57-1.8 4.34m-9.1 10.65l-4.02 2.45-4.35 1.8-4.58 1.1-22.53.04m-22.52.03l-45.06.08m-22.53.05l-45.04.08m-22.53.04l-22.53.05-4.7-.37-4.57-1.1-4.35-1.8m-10.65-9.1l-2.46-4-1.8-4.36-1.1-4.6-.06-17.45m-.05-17.45l-.13-34.9m-.06-17.46l-.06-17.46.37-4.7 1.1-4.57 1.8-4.34" stroke="red" stroke-width="4" fill="none"/><use xlink:href="#m" transform="matrix(1,0,0,1,1180,760.0155355222863) translate(59.83950617283952 11.11111111111111)"/><use xlink:href="#n" transform="matrix(1,0,0,1,1180,760.0155355222863) translate(142.4320987654321 11.11111111111111)"/><path d="M1146.25 254.58a6 6 0 0 1 6-6h308a6 6 0 0 1 6 6v590.84a6 6 0 0 1-6 6h-308a6 6 0 0 1-6-6z" fill="#fff" fill-opacity="0"/><path d="M1165.73 248.65h12.36m8.22 0h12.36m8.24 0h12.36m8.24 0l12.35-.02m8.24 0h12.37m8.24 0h12.37m8.23 0h12.36m8.24 0h12.36m8.24-.02h12.35m8.24 0h12.35m8.24 0h12.35m8.23 0h12.36m8.24 0h12.36m8.23 0h12.36m8.24-.02h6.18l.94.08.9.22.87.36.8.5.72.6.6.72.5.8.36.87.22.9v5.93m0 7.9v11.83m0 7.88V299m0 7.9v11.84m0 7.9v11.82m0 7.9v11.83m0 7.88v11.84m0 7.9v11.82m0 7.9l.02 11.83m0 7.9v11.82m0 7.88v11.84m0 7.9v11.82m0 7.9v11.83m0 7.9V516m0 7.9v11.82m0 7.9v11.83m0 7.9l.02 11.82m0 7.9v11.83m0 7.9v11.83m0 7.9v11.82m0 7.9v11.83m0 7.9v11.82m0 7.9v11.83m0 7.9v11.83m0 7.88l.02 11.84m0 7.9v11.83m0 7.9v11.83m0 7.9v11.83m0 7.9v11.82m0 7.9v11.83m0 7.9v5.92l-.06.94-.22.9-.36.88-.5.8-.6.72-.72.6-.8.5-.88.36-.9.22h-6.2m-8.23 0h-12.36m-8.22 0h-12.36m-8.24.02h-12.36m-8.24 0h-12.35m-8.24 0h-12.37m-8.24 0h-12.37m-8.23.02h-12.36m-8.24 0h-12.36m-8.24 0h-12.35m-8.24 0h-12.35m-8.24.02h-12.35m-8.23 0h-12.36m-8.24 0h-12.36m-8.23 0h-12.36m-8.24.02h-6.18l-.94-.08-.9-.22-.87-.36-.8-.5-.72-.6-.6-.72-.5-.8-.36-.87-.22-.9v-5.93m0-7.9v-11.83m0-7.88V801m0-7.9v-11.84m0-7.9v-11.83m0-7.88V741.8m0-7.88v-11.84m0-7.9v-11.82m0-7.9l-.02-11.83m0-7.9v-11.82m0-7.88v-11.84m0-7.9v-11.82m0-7.9v-11.83m0-7.9V584m0-7.9V564.3m0-7.9v-11.83m0-7.9l-.02-11.82m0-7.9V505.1m0-7.9v-11.83m0-7.9v-11.82m0-7.9v-11.83m0-7.9V426.2m0-7.9v-11.83m0-7.9v-11.82m0-7.9l-.02-11.83m0-7.9V347.3m0-7.9v-11.83m0-7.9v-11.83m0-7.9v-11.82m0-7.9V268.4m0-7.9v-5.92l.06-.94.22-.9.36-.88.5-.8.6-.72.72-.6.8-.5.88-.36.9-.22h6.2" stroke="#d86613" stroke-width="4" fill="none"/><path d="M1278.25 248.58h56v56h-56v-56z" stroke="#fff" stroke-opacity="0" fill="#d86613"/><path d="M1297.93 272.3l-1.14 1.15 2.32 2.33h-12.87v1.6h12.87l-2.33 2.34 1.13 1.13 4.27-4.27-4.27-4.27zM1326.25 275.78h-12.87l2.33-2.33-1.13-1.14-4.27 4.28 4.27 4.28 1.14-1.14-2.32-2.33h12.87v-1.62zM1305.45 259.2v12.9h1.6v-12.9l2.34 2.34 1.12-1.13-4.27-4.26-4.27 4.27 1.13 1.14 2.35-2.33zM1307.05 293.95v-12.87h-1.6v12.87l-2.34-2.33-1.12 1.14 4.27 4.27 4.27-4.27-1.13-1.14-2.35 2.33z" stroke="#fff" stroke-opacity="0" fill="#fff"/><use xlink:href="#o" transform="matrix(1,0,0,1,1146.25,319.5826771653544) translate(109.55 14.4)"/><use xlink:href="#p" transform="matrix(1,0,0,1,1146.25,319.5826771653544) translate(151.55 14.4)"/><path d="M400 531.97c0 26.5-22.4 48.02-50 48.02s-50-21.52-50-48.03c0-26.52 22.4-48.03 50-48.03s50 21.5 50 48.03z" fill="#9d5025"/><path d="M300 528.02h100v3.94H300v-3.94z" fill="#9d5025"/><path d="M400 528.02c0 26.5-22.4 48.03-50 48.03s-50-21.5-50-48.02c0-26.5 22.4-48.03 50-48.03s50 21.5 50 48.02z" fill="#f58536"/><path d="M312.3 532.8v-1.25c.38-5.82 3.77-10.67 9.26-13.22.53-10.72 10.02-19 21.25-18.43 7 .32 12.88 3.74 16.42 9.56 5.73-2.3 12.28.23 14.7 5.7.37.77.6 1.42.75 2.2 7.53 1.44 12.95 8.37 12.95 14.2v1.15c0 7.12-7.68 13.36-16.42 13.36h-42.56c-8.66.05-16.34-6.2-16.34-13.26z" fill="#fff"/><path d="M360.24 514.57l-3.2 2.1-1.62-3.37c-2.48-5.28-7.56-8.52-13.62-8.56h-.06c-8.28 0-15.05 6.48-15.05 14.5v2.7l-2.35.64c-3.98 1.53-6.58 4.88-6.9 9v1.16c0 3.9 4.94 8.4 11.26 8.4h42.6c6.4 0 11.28-4.5 11.28-8.4v-1.17c0-3.93-4.56-9.06-9.84-9.46l-2.86-.2-.2-2.74c0-1.17-.4-2.1-1.04-3.06-1.9-2.66-5.67-3.3-8.4-1.5z" fill="#f58536"/><use xlink:href="#q" transform="matrix(1,0,0,1,300,580) translate(13.024691358024697 17.77777777777778)"/><use xlink:href="#r" transform="matrix(1,0,0,1,300,580) translate(8.672839506172842 44.44444444444444)"/><path d="M560 540.55c0 26.5-22.4 48.02-50 48.02s-50-21.5-50-48.02c0-26.5 22.4-48.03 50-48.03s50 21.52 50 48.03z" fill="#9d5025"/><path d="M560 536.6c0 26.52-22.4 48.03-50 48.03s-50-21.5-50-48.02c0-26.5 22.4-48.02 50-48.02s50 21.52 50 48.03z" fill="#f58536"/><path d="M524.58 497.8v17.45H495.4V497.8h29.18zM547.15 548.28v14.2h-14.78v-14.2h14.78zM528.46 548.28v14.2h-14.78v-14.2h14.78zM505.7 548.28v14.2h-14.78v-14.2h14.78zM487 548.28v14.2h-14.78v-14.2H487z" fill="#fff"/><path d="M478.28 536h2.66v13.92h-2.66V536z" fill="#fff"/><path d="M478.28 536h21.36v2.54h-21.36V536z" fill="#fff"/><path d="M496.98 536h2.66v13.92h-2.66V536zM519.74 536h2.66v13.92h-2.66V536z" fill="#fff"/><path d="M519.74 536h21.36v2.54h-21.36V536z" fill="#fff"/><path d="M538.44 536h2.66v13.92h-2.66V536zM487.65 526.04h2.66v11.22h-2.65v-11.22zM508.66 512.68h2.66v13.57h-2.66v-13.57z" fill="#fff"/><path d="M487.65 524.97h44.15v2.55h-44.15v-2.55z" fill="#fff"/><path d="M529.14 526.04h2.66v11.22h-2.66v-11.22z" fill="#fff"/><use xlink:href="#s" transform="matrix(1,0,0,1,460,588.5826771653544) translate(-4.228395061728399 17.77777777777778)"/><use xlink:href="#t" transform="matrix(1,0,0,1,460,588.5826771653544) translate(25.308641975308642 44.44444444444444)"/><use xlink:href="#u" transform="matrix(1,0,0,1,460,588.5826771653544) translate(6.234567901234563 71.11111111111111)"/><path d="M122.44 538.95H101.7c-.95 0-1.7-.77-1.7-1.7v-2.54c0-9.48 6.23-17.43 15.5-19.66.42-.1.8-.05 1.2.17 2.73 1.47 5.68 1.47 8.4 0 .4-.2.8-.26 1.22-.16 2.43.6 4.43 1.46 6.5 2.85l-1.9 2.82c-1.55-1-3-1.68-4.8-2.16-3.45 1.58-7 1.58-10.44 0-7.38 2.06-12.27 8.5-12.27 16.15v.85h19.04z" stroke="#fff" stroke-opacity="0" fill="#232f3e"/><path d="M120.88 519.63c-6.17 0-11.17-5-11.17-11.15s5-11.15 11.18-11.15c6.17-.06 11.2 4.9 11.26 11.02.04 4.26-2.1 7.9-5.86 9.9-1.72.96-3.4 1.38-5.4 1.38zm0-18.9c-4.3 0-7.83 3.45-7.85 7.75 0 2.92 1.48 5.42 4.06 6.8 2.43 1.32 5.12 1.32 7.57 0 2.6-1.4 4.1-3.94 4.06-6.9-.05-4.27-3.57-7.68-7.85-7.63zM178.32 538.95h-20.75v-3.4h19.04v-.84c0-7.65-4.9-14.1-12.25-16.15-3.45 1.6-7 1.6-10.46 0-1.82.5-3.3 1.2-4.84 2.27l-1.94-2.8c2.07-1.43 4.07-2.34 6.5-2.97.44-.1.86-.04 1.26.17 2.7 1.46 5.7 1.46 8.42 0 .4-.2.78-.26 1.2-.17 9.25 2.23 15.5 10.18 15.5 19.66v2.55c0 .93-.76 1.68-1.68 1.7z" stroke="#fff" stroke-opacity="0" fill="#232f3e"/><path d="M159.08 519.63c-6.2 0-11.23-5.05-11.23-11.25s5.06-11.2 11.28-11.2c6.2 0 11.23 5.04 11.23 11.24 0 4.22-2.14 7.82-5.85 9.84-1.75.94-3.44 1.37-5.42 1.37zm0-18.9c-4.3-.02-7.8 3.44-7.83 7.76-.02 2.9 1.46 5.4 4.05 6.77 2.43 1.33 5.13 1.33 7.6 0 2.62-1.4 4.13-3.95 4.08-6.94-.1-4.27-3.62-7.68-7.9-7.6zM167.2 577.16h-54.46c-.92 0-1.67-.74-1.67-1.7v-3.6c-.06-13.08 8.6-24.08 21.33-27.17.46-.15.86-.08 1.27.12 4.04 2.18 8.5 2.18 12.6 0 .34-.2.75-.27 1.2-.13 12.78 3.04 21.45 14.04 21.4 27.16v3.6c0 .96-.76 1.7-1.68 1.7zm-52.72-3.38h50.97v-1.92c0-11.26-7.28-20.73-18.2-23.66-4.8 2.3-9.83 2.3-14.62 0-10.93 2.93-18.15 12.4-18.15 23.66z" stroke="#fff" stroke-opacity="0" fill="#232f3e"/><path d="M140.02 549.8c-2.7 0-5-.57-7.4-1.86-7.4-4.07-10.13-13.33-6.1-20.77 4.1-7.4 13.38-10.12 20.83-6.08 7.42 4.05 10.15 13.32 6.1 20.75-1.47 2.7-3.4 4.62-6.1 6.1-2.36 1.28-4.66 1.86-7.33 1.86zm0-26.75c-4.44-.07-8.28 2.17-10.42 6.08-3.07 5.66-.98 12.76 4.7 15.85 3.67 1.95 7.7 1.95 11.4 0 3.95-2.15 6.22-5.97 6.16-10.44-.1-6.42-5.4-11.6-11.84-11.5z" stroke="#fff" stroke-opacity="0" fill="#232f3e"/><path d="M178.78 538.95h-39.72c-.68 0-1.23-.55-1.23-1.24v-2.62c-.04-9.55 6.3-17.57 15.56-19.83.33-.1.63-.04.92.1 2.95 1.6 6.2 1.6 9.2 0 .25-.14.54-.2.88-.1 9.32 2.24 15.64 10.26 15.6 19.83v2.63c0 .7-.55 1.25-1.22 1.25zm-38.46-2.47h37.2v-1.4c0-8.22-5.32-15.13-13.3-17.26-3.5 1.68-7.16 1.68-10.66 0-7.97 2.13-13.24 9.04-13.24 17.26z" stroke="#fff" stroke-opacity="0" stroke-width=".73" fill="#fff" fill-opacity="0"/><path d="M140.94 538.95h-39.72c-.67 0-1.22-.55-1.22-1.24v-2.62c-.04-9.55 6.28-17.57 15.56-19.83.34-.1.63-.04.93.1 2.94 1.6 6.2 1.6 9.18 0 .25-.14.55-.2.88-.1 9.32 2.24 15.65 10.26 15.6 19.83v2.63c0 .7-.54 1.25-1.22 1.25zm-38.45-2.47h37.18v-1.4c0-8.22-5.3-15.13-13.28-17.26-3.5 1.68-7.17 1.68-10.67 0-7.97 2.13-13.24 9.04-13.24 17.26z" stroke="#fff" stroke-opacity="0" stroke-width=".73" fill="#fff" fill-opacity="0"/><use xlink:href="#a" transform="matrix(1,0,0,1,70,586.1653543307089) translate(2.5925925925925952 17.77777777777778)"/><use xlink:href="#v" transform="matrix(1,0,0,1,70,586.1653543307089) translate(58.51851851851851 17.77777777777778)"/><use xlink:href="#w" transform="matrix(1,0,0,1,70,586.1653543307089) translate(41.04938271604939 44.44444444444444)"/><path d="M840 691.97c0 26.5-26.88 48.02-60 48.02-33.12 0-60-21.52-60-48.03 0-26.5 26.88-48.03 60-48.03 33.12 0 60 21.5 60 48.02z" fill="#9d5025"/><path d="M840 688.02c0 26.5-26.88 48.03-60 48.03-33.12 0-60-21.5-60-48.02 0-26.5 26.88-48.03 60-48.03 33.12 0 60 21.5 60 48.02z" fill="#f58536"/><path d="M796.24 665.72h6.32v44.58h-6.32v-44.58zM814.03 677l16.56 10.8-16.57 11.24V677z" fill="#fff"/><path d="M755.46 685.5l3.64 2.34-4 2.7h61.72v-5.04h-61.36zM755.1 668.26h47.46v-5.06h-47.1l3.62 2.35-4 2.7zM759.08 710.13l-4 2.7h47.48v-5.05h-47.1l3.62 2.35zM741.9 679.2l13.25 8.63-13.25 9V679.2zM741.9 656.9l13.25 8.64-13.25 9V656.9zM741.9 701.5l13.25 8.63-13.25 9V701.5z" fill="#fff"/><use xlink:href="#x" transform="matrix(1,0,0,1,720,740) translate(12.99382716049383 17.77777777777778)"/><use xlink:href="#y" transform="matrix(1,0,0,1,720,740) translate(64.78395061728395 17.77777777777778)"/><use xlink:href="#r" transform="matrix(1,0,0,1,720,740) translate(18.672839506172842 44.44444444444444)"/><path d="M820 346.03c0 23.5-26.32 42.54-58.75 42.54s-58.75-19.06-58.75-42.54 26.32-42.54 58.75-42.54S820 322.54 820 346.02z" fill="#9d5025"/><path d="M820 342.54c0 23.48-26.32 42.54-58.75 42.54s-58.75-19.06-58.75-42.54S728.82 300 761.25 300 820 319.06 820 342.54z" fill="#f58536"/><path d="M777.15 322.78h6.2v39.5h-6.2v-39.5zM794.57 332.78l16.22 9.57-16.23 9.95v-19.52z" fill="#fff"/><path d="M737.22 340.3l3.57 2.08-3.94 2.4h60.44v-4.47h-60.08zM736.86 325.03h46.48v-4.48h-46.1l3.52 2.08-3.9 2.4zM740.76 362.12l-3.9 2.4h46.48v-4.48h-46.1l3.52 2.08zM723.94 334.72l12.98 7.65-12.98 7.98v-15.63zM723.94 314.98l12.98 7.65-12.98 7.96v-15.62zM723.94 354.48l12.98 7.65-12.98 7.96v-15.62z" fill="#fff"/><use xlink:href="#x" transform="matrix(1,0,0,1,702.5,388.5826771653544) translate(11.99382716049383 17.77777777777778)"/><use xlink:href="#y" transform="matrix(1,0,0,1,702.5,388.5826771653544) translate(63.78395061728395 17.77777777777778)"/><use xlink:href="#r" transform="matrix(1,0,0,1,702.5,388.5826771653544) translate(17.672839506172842 44.44444444444444)"/><path d="M1192.2 352.9l-4 1.68v47.97l4 1.7 16.2-24.45-16.2-26.9z" fill="#9d5025"/><path d="M1201.52 402.4l-9.33 1.84V352.9l9.32 1.78v47.7z" fill="#f58536"/><path d="M1196.6 351l4.93-2.07 23.35 31.76-23.35 27.5-4.92-2.08V351z" fill="#9d5025"/><path d="M1213.15 405.4l-11.63 2.8v-59.27l11.63 2.78v53.7z" fill="#f58536"/><path d="M1207 346.6l6.17-2.63 34.45 40.2-34.45 28.97-6.17-2.63v-63.9z" fill="#9d5025"/><path d="M1228.1 408.5l-14.94 4.64v-69.17l14.93 4.64v59.9z" fill="#f58536"/><path d="M1220.13 341l7.97-3.35 37.28 43.2-37.28 38.64-7.97-3.37V341z" fill="#9d5025"/><path d="M1268.02 402.55l-39.93 16.94v-81.85L1268 354.6v47.95z" fill="#f58536"/><use xlink:href="#z" transform="matrix(1,0,0,1,1188.1903435944205,419.48611879361414) translate(8.611111111111114 17.77777777777778)"/><path d="M1305.1 352.9l-4 1.68v47.97l4 1.7 16.2-24.45-16.2-26.9z" fill="#9d5025"/><path d="M1314.42 402.4l-9.33 1.84V352.9l9.32 1.78v47.7z" fill="#f58536"/><path d="M1309.5 351l4.93-2.07 23.36 31.76-23.37 27.5-4.92-2.08V351z" fill="#9d5025"/><path d="M1326.06 405.4l-11.64 2.8v-59.27l11.64 2.78v53.7z" fill="#f58536"/><path d="M1319.9 346.6l6.18-2.63 34.44 40.2-34.44 28.97-6.18-2.63v-63.9z" fill="#9d5025"/><path d="M1341 408.5l-14.93 4.64v-69.17l14.92 4.64v59.9z" fill="#f58536"/><path d="M1333.03 341l7.97-3.35 37.28 43.2L1341 419.5l-7.97-3.37V341z" fill="#9d5025"/><path d="M1380.92 402.55L1341 419.5v-81.85l39.92 16.94v47.95z" fill="#f58536"/><use xlink:href="#z" transform="matrix(1,0,0,1,1301.0914432718614,419.48611879361414) translate(8.611111111111114 17.77777777777778)"/><path d="M1313.97 674.32l-4.04 1.7v47.96l4.04 1.7 16.32-24.45-16.33-26.9z" fill="#9d5025"/><path d="M1323.36 723.82l-9.4 1.85v-51.35l9.4 1.8v47.7z" fill="#f58536"/><path d="M1318.4 672.43l4.97-2.07 23.53 31.76-23.53 27.5-4.96-2.07v-55.12z" fill="#9d5025"/><path d="M1335.1 726.84l-11.73 2.78v-59.26l11.72 2.78v53.7z" fill="#f58536"/><path d="M1328.9 668.04l6.2-2.63 34.7 40.2-34.7 28.98-6.2-2.63v-63.9z" fill="#9d5025"/><path d="M1350.14 729.94l-15.04 4.64V665.4l15.04 4.64v59.9z" fill="#f58536"/><path d="M1342.12 662.44l8.02-3.36 37.56 43.2-37.56 38.64-8.02-3.36v-75.12z" fill="#9d5025"/><path d="M1390.36 723.98l-40.22 16.94v-81.84l40.22 16.94v47.96z" fill="#f58536"/><use xlink:href="#z" transform="matrix(1,0,0,1,1309.9346564055795,740.9189771505459) translate(9.111111111111114 17.77777777777778)"/><path d="M956.25 303.65h120v29.6h-120v-29.6z" fill="#9d5025"/><path d="M956.25 300h120v28.8h-120V300z" fill="#f58536"/><path d="M956.25 342.07h120v30.9h-120v-30.9z" fill="#9d5025"/><path d="M956.25 339.72h120v28.8h-120v-28.8z" fill="#f58536"/><path d="M956.25 381.07h120V411h-120v-29.93z" fill="#9d5025"/><path d="M956.25 377.72h120v28.8h-120v-28.8z" fill="#f58536"/><path d="M971 323h-2.68v-12.74h-3.6v-1.8h.3c1.65 0 3.5-.4 4.02-2.63v-.35H971zM986.43 308c-3.2 4.65-4.84 9.34-5.35 14.97h-2.9c.62-5.57 2.37-10.17 5.67-14.67h-7.52v-2.54h10.1zM998.7 323h-10c0-7.64 7.22-7.46 7.22-12.9 0-1.45-.62-2.65-2.16-2.65-2.06 0-2.37 1.8-2.37 3.6h-2.6c0-3.5 1.35-5.66 5.06-5.66 2.37-.3 4.53 1.38 4.84 3.76v.92c0 5.82-5.56 6.18-6.9 10.48h6.9zm5.87 0h-2.78v-3.27h2.77zm10 0h-2.8v-12.74h-3.6v-1.8h.3c1.66 0 3.62-.4 4.03-2.63v-.35h2.06zm10.3.34c-4.34 0-5.16-3.37-5.16-8.42 0-5.02.94-9.5 5.37-9.5 3.1 0 4.63 1.4 4.63 4.28h-2.68c0-1-.5-2.3-1.85-2.3-2.58 0-2.68 3.5-2.68 6.06.7-1.22 1.95-1.9 3.3-1.8 2.36 0 4.2 1.8 4.2 5.23.1 4.04-1.54 6.45-5.14 6.45zm10.9-.35H1033v-3.27h2.78zm8.04.34c-3.28 0-5.14-2.13-5.14-9 0-6.88 1.75-9 5.15-9 3.3 0 5.06 2.14 5.06 9 0 6.85-1.75 9-5.05 9zm10.72-.35h-2.67v-3.27h2.78zm8.04.34c-3.3 0-5.15-2.13-5.15-9 0-6.88 1.86-9 5.16-9 3.4 0 5.15 2.14 5.15 9 0 6.85-1.75 9-5.04 9zM1062.6 345.2c3.3 0 5.17 2.13 5.17 9 0 6.88-1.76 9-5.16 9-3.28 0-5.14-2.2-5.14-9.05 0-6.86 1.86-8.94 5.15-8.94zm-10.7 14.27h2.78v3.33h-2.9zm-12.37-11.3h.2c1.65 0 3.6-.4 4.02-2.62v-.34h2.07v17.6h-2.9V350h-3.5zm-6.5 11.3h2.8v3.33h-2.9zm-7.83-14.26c3 0 4.64 1.38 4.64 4.26h-2.88c0-1-.42-2.28-1.76-2.28-2.57 0-2.68 3.5-2.68 6.05.62-1.22 1.86-1.88 3.3-1.8 2.37 0 4.23 1.8 4.23 5.24 0 4.05-1.65 6.44-5.26 6.44-4.34 0-5.16-3.35-5.16-8.4 0-5.04 1.03-9.5 5.56-9.5zm-16.9 2.98h.2c1.66 0 3.62-.4 4.03-2.63v-.34h2.06v17.6h-2.8V350h-3.6zm-6.5 11.3h2.8v3.32h-2.8zm-8.03-12.3c-2.06 0-2.37 1.8-2.37 3.6h-2.57c0-3.5 1.33-5.64 5.04-5.64 2.38-.3 4.54 1.4 4.75 3.76.1.33.1.6.1.9 0 5.84-5.57 6.2-6.9 10.5h6.9v2.5h-10c0-7.62 7.22-7.44 7.22-12.92 0-1.47-.62-2.7-2.17-2.7zm-17.4-1.63h10.1v2.23c-3.2 4.65-4.86 9.34-5.37 14.97h-2.9c.63-5.56 2.38-10.16 5.68-14.66h-7.52zm-11.56 2.63h.22c1.65 0 3.6-.4 4.02-2.63v-.34h2.06v17.6h-2.78V350h-3.6zM1062.6 383.25c3.3 0 5.17 2.12 5.17 9s-1.76 9-5.16 9c-3.28 0-5.14-2.25-5.14-9.06 0-6.82 1.86-8.95 5.15-8.95zm-10.7 14.26h2.78v3.3h-2.9zm-8.04-12.28c-2.06 0-2.37 1.8-2.37 3.6h-2.7c0-3.5 1.45-5.64 5.06-5.64 2.37-.3 4.53 1.4 4.84 3.76v.9c0 5.82-5.56 6.2-6.9 10.5h7v2.45h-10c0-7.63 7.12-7.47 7.12-12.94 0-1.43-.52-2.64-2.06-2.64zm-10.82 12.3h2.78v3.27h-2.9zm-7.84-14.27c3 0 4.64 1.37 4.64 4.25h-2.88c0-1-.42-2.28-1.76-2.28-2.57 0-2.68 3.5-2.68 6.05.62-1.2 1.86-1.88 3.3-1.8 2.37 0 4.23 1.8 4.23 5.24 0 4.06-1.65 6.45-5.26 6.45-4.34 0-5.16-3.36-5.16-8.4 0-5.05 1.03-9.5 5.56-9.5zm-16.9 2.97h.2c1.66 0 3.62-.4 4.03-2.63v-.35h2.06v17.54h-2.8V388h-3.6zm-6.5 11.3h2.8v3.27h-2.8zm-8.03-12.3c-2.06 0-2.37 1.8-2.37 3.6h-2.57c0-3.5 1.33-5.64 5.04-5.64 2.38-.3 4.54 1.4 4.75 3.76.1.33.1.6.1.9 0 5.82-5.57 6.2-6.9 10.5h6.9v2.45h-10c0-7.63 7.22-7.47 7.22-12.94 0-1.43-.62-2.64-2.17-2.64zm-17.4-1.63h10.1v2.22c-3.2 4.65-4.86 9.34-5.37 14.97h-2.9c.63-5.57 2.38-10.17 5.68-14.67h-7.52zm-11.66 2.62h.32c1.65 0 3.6-.4 4.02-2.63v-.35H971v17.54h-2.68V388h-3.6z" fill="#fff"/><path d="M1043.78 307.7c-1.88 0-2.37 1.8-2.37 6.97s.5 6.96 2.38 6.96 2.36-1.8 2.36-6.96c0-5.17-.48-6.97-2.36-6.97zM1062.63 307.7c-1.88 0-2.36 1.8-2.36 6.97s.48 6.96 2.36 6.96 2.36-1.8 2.36-6.96c0-5.17-.5-6.97-2.37-6.97zM1062.63 361.37c1.88 0 2.36-1.8 2.36-6.96s-.5-6.96-2.37-6.96c-1.88 0-2.36 1.8-2.36 6.97 0 5.18.46 6.97 2.36 6.97zM1025.1 361.37c1.67 0 2.26-1.8 2.26-3.76 0-2.42-.7-3.8-2.27-3.8-2 0-2.37 1.8-2.37 3.94 0 2.12.68 3.63 2.36 3.63zM1062.63 399.4c1.88 0 2.36-1.78 2.36-6.95s-.5-6.97-2.37-6.97c-1.88 0-2.36 1.8-2.36 6.97s.46 6.96 2.36 6.96zM1025.1 399.4c1.67 0 2.26-1.8 2.26-3.75 0-2.43-.7-3.8-2.27-3.8-2 0-2.37 1.8-2.37 3.93 0 2.12.68 3.63 2.36 3.63zM1025.1 321.63c1.67 0 2.26-1.8 2.26-3.76 0-2.43-.7-3.8-2.27-3.8-2 0-2.37 1.8-2.37 3.93 0 2.12.68 3.63 2.36 3.63z" fill="#f58536"/><use xlink:href="#A" transform="matrix(1,0,0,1,956.25,411) translate(7.592592592592595 17.77777777777778)"/><use xlink:href="#B" transform="matrix(1,0,0,1,956.25,411) translate(64.32098765432099 17.77777777777778)"/><path d="M956.25 659.57h120v29.6h-120v-29.6z" fill="#9d5025"/><path d="M956.25 655.92h120v28.8h-120v-28.8z" fill="#f58536"/><path d="M956.25 698h120v30.88h-120v-30.9z" fill="#9d5025"/><path d="M956.25 695.63h120v28.8h-120v-28.8z" fill="#f58536"/><path d="M956.25 737h120v29.9h-120V737z" fill="#9d5025"/><path d="M956.25 733.64h120v28.8h-120v-28.8z" fill="#f58536"/><path d="M971 678.9h-2.68v-12.73h-3.6v-1.8h.3c1.65 0 3.5-.4 4.02-2.63v-.34H971zm15.44-14.96c-3.2 4.65-4.84 9.33-5.35 14.97h-2.9c.62-5.55 2.37-10.15 5.67-14.65h-7.52v-2.54h10.1zm12.26 14.97h-10c0-7.63 7.22-7.45 7.22-12.9 0-1.43-.62-2.64-2.16-2.64-2.06 0-2.37 1.8-2.37 3.6h-2.6c0-3.5 1.35-5.65 5.06-5.65 2.37-.3 4.53 1.4 4.84 3.78v.9c0 5.83-5.56 6.2-6.9 10.5h6.9zm5.87 0h-2.78v-3.25h2.77zm10 0h-2.8v-12.73h-3.6v-1.8h.3c1.66 0 3.62-.4 4.03-2.63v-.34h2.06zm10.3.35c-4.34 0-5.16-3.37-5.16-8.4 0-5.04.94-9.5 5.37-9.5 3.1 0 4.63 1.38 4.63 4.27h-2.68c0-1-.5-2.3-1.85-2.3-2.58 0-2.68 3.5-2.68 6.06.7-1.22 1.95-1.9 3.3-1.8 2.36 0 4.2 1.8 4.2 5.22.1 4.06-1.54 6.47-5.14 6.47zm10.9-.34H1033v-3.25h2.78zm8.04.35c-3.28 0-5.14-2.12-5.14-9 0-6.87 1.75-9 5.15-9 3.3 0 5.06 2.15 5.06 9 0 6.86-1.75 9.02-5.05 9.02zm10.72-.34h-2.67v-3.25h2.78zm8.04.35c-3.3 0-5.15-2.12-5.15-9 0-6.87 1.86-9 5.16-9 3.4 0 5.15 2.15 5.15 9 0 6.86-1.75 9.02-5.04 9.02zM1062.6 701.13c3.3 0 5.17 2.1 5.17 9 0 6.87-1.76 9-5.16 9-3.28 0-5.14-2.2-5.14-9.06s1.86-8.95 5.15-8.95zm-10.7 14.26h2.78v3.32h-2.9zm-12.37-11.3h.2c1.65 0 3.6-.4 4.02-2.63v-.35h2.07v17.6h-2.9v-12.8h-3.5zm-6.5 11.3h2.8v3.32h-2.9zm-7.83-14.27c3 0 4.64 1.37 4.64 4.25h-2.88c0-1-.42-2.28-1.76-2.28-2.57 0-2.68 3.5-2.68 6.04.62-1.2 1.86-1.88 3.3-1.8 2.37 0 4.23 1.8 4.23 5.25 0 4.04-1.65 6.43-5.26 6.43-4.34 0-5.16-3.37-5.16-8.4 0-5.05 1.03-9.5 5.56-9.5zm-16.9 2.96h.2c1.66 0 3.62-.4 4.03-2.63v-.35h2.06v17.6h-2.8v-12.8h-3.6zm-6.5 11.3h2.8v3.32h-2.8zm-8.03-12.3c-2.06 0-2.37 1.8-2.37 3.6h-2.57c0-3.5 1.33-5.65 5.04-5.65 2.38-.3 4.54 1.4 4.75 3.77.1.32.1.6.1.9 0 5.83-5.57 6.2-6.9 10.5h6.9v2.5h-10c0-7.62 7.22-7.44 7.22-12.92 0-1.47-.62-2.7-2.17-2.7zm-17.4-1.63h10.1v2.23c-3.2 4.65-4.86 9.34-5.37 14.97h-2.9c.63-5.56 2.38-10.16 5.68-14.67h-7.52zm-11.56 2.62h.22c1.65 0 3.6-.4 4.02-2.63v-.35h2.06v17.6h-2.78v-12.8h-3.6zM1062.6 739.16c3.3 0 5.17 2.12 5.17 9s-1.76 9-5.16 9c-3.28 0-5.14-2.24-5.14-9.05 0-6.8 1.86-8.94 5.15-8.94zm-10.7 14.27h2.78v3.28h-2.9zm-8.04-12.3c-2.06 0-2.37 1.82-2.37 3.6h-2.7c0-3.48 1.45-5.64 5.06-5.64 2.37-.32 4.53 1.4 4.84 3.76v.9c0 5.82-5.56 6.2-6.9 10.5h7v2.45h-10c0-7.6 7.12-7.45 7.12-12.92 0-1.43-.52-2.64-2.06-2.64zm-10.82 12.3h2.78v3.28h-2.9zm-7.84-14.26c3 0 4.64 1.37 4.64 4.25h-2.88c0-1-.42-2.28-1.76-2.28-2.57 0-2.68 3.5-2.68 6.04.62-1.2 1.86-1.88 3.3-1.8 2.37 0 4.23 1.8 4.23 5.25 0 4.05-1.65 6.44-5.26 6.44-4.34 0-5.16-3.37-5.16-8.4 0-5.05 1.03-9.5 5.56-9.5zm-16.9 2.96h.2c1.66 0 3.62-.4 4.03-2.62v-.34h2.06v17.55h-2.8v-12.77h-3.6zm-6.5 11.3h2.8v3.28h-2.8zm-8.03-12.3c-2.06 0-2.37 1.82-2.37 3.6h-2.57c0-3.48 1.33-5.64 5.04-5.64 2.38-.32 4.54 1.4 4.75 3.76.1.32.1.6.1.9 0 5.82-5.57 6.2-6.9 10.5h6.9v2.45h-10c0-7.6 7.22-7.45 7.22-12.92 0-1.43-.62-2.64-2.17-2.64zm-17.4-1.62h10.1v2.24c-3.2 4.65-4.86 9.34-5.37 14.97h-2.9c.63-5.55 2.38-10.15 5.68-14.66h-7.52zm-11.66 2.63h.32c1.65 0 3.6-.4 4.02-2.62v-.34H971v17.55h-2.68v-12.77h-3.6z" fill="#fff"/><path d="M1043.78 663.62c-1.88 0-2.37 1.8-2.37 6.97 0 5.15.5 6.95 2.38 6.95s2.36-1.8 2.36-6.96c0-5.18-.48-6.98-2.36-6.98zM1062.63 663.62c-1.88 0-2.36 1.8-2.36 6.97 0 5.15.48 6.95 2.36 6.95s2.36-1.8 2.36-6.96c0-5.18-.5-6.98-2.37-6.98zM1062.63 717.3c1.88 0 2.36-1.8 2.36-6.98 0-5.16-.5-6.96-2.37-6.96-1.88 0-2.36 1.8-2.36 6.96 0 5.17.46 6.97 2.36 6.97zM1025.1 717.3c1.67 0 2.26-1.8 2.26-3.77 0-2.43-.7-3.8-2.27-3.8-2 0-2.37 1.8-2.37 3.92 0 2.13.68 3.64 2.36 3.64zM1062.63 755.33c1.88 0 2.36-1.8 2.36-6.97 0-5.16-.5-6.96-2.37-6.96-1.88 0-2.36 1.8-2.36 6.96 0 5.17.46 6.97 2.36 6.97zM1025.1 755.33c1.67 0 2.26-1.8 2.26-3.77 0-2.42-.7-3.8-2.27-3.8-2 0-2.37 1.8-2.37 3.93 0 2.12.68 3.63 2.36 3.63zM1025.1 677.55c1.67 0 2.26-1.8 2.26-3.76 0-2.44-.7-3.8-2.27-3.8-2 0-2.37 1.8-2.37 3.9 0 2.14.68 3.65 2.36 3.65z" fill="#f58536"/><g><use xlink:href="#A" transform="matrix(1,0,0,1,956.25,766.9173228346044) translate(7.592592592592595 17.77777777777778)"/><use xlink:href="#B" transform="matrix(1,0,0,1,956.25,766.9173228346044) translate(64.32098765432099 17.77777777777778)"/></g><path d="M182 537.16h95.6" stroke="#3a414a" stroke-width="4" fill="none"/><path d="M182.05 539.16H177v-.2h1.78l.86-.37.36-.88v-2.56h2.05z" stroke="#3a414a" stroke-width=".05" fill="#3a414a"/><path d="M293.87 537.16l-14.26 4.64v-9.27z" stroke="#3a414a" stroke-width="4" fill="#3a414a"/><path d="M1204.03 674.32l-4.03 1.7v47.96l4.03 1.7 16.33-24.45-16.33-26.9z" fill="#9d5025"/><path d="M1213.42 723.82l-9.4 1.85v-51.35l9.4 1.8v47.7z" fill="#f58536"/><path d="M1208.48 672.43l4.96-2.07 23.53 31.76-23.53 27.5-4.96-2.07v-55.12z" fill="#9d5025"/><path d="M1225.15 726.84l-11.72 2.78v-59.26l11.72 2.78v53.7z" fill="#f58536"/><path d="M1218.95 668.04l6.22-2.63 34.7 40.2-34.7 28.98-6.22-2.63v-63.9z" fill="#9d5025"/><path d="M1240.2 729.94l-15.04 4.64V665.4l15.04 4.64v59.9z" fill="#f58536"/><path d="M1232.18 662.44l8.03-3.36 37.57 43.2-37.56 38.64-8.02-3.36v-75.12z" fill="#9d5025"/><path d="M1280.43 723.98l-40.23 16.94v-81.84l40.23 16.94v47.96z" fill="#f58536"/><g><use xlink:href="#z" transform="matrix(1,0,0,1,1200,740.9189771505146) translate(9.111111111111114 17.77777777777778)"/></g><path d="M1638 484l57.98 8.62v5.1c0 7.54-25.98 13.63-58 13.63-32 0-57.98-6.1-57.98-13.64v-5.52z" fill="#8c3123"/><path d="M1638.02 520.7c24.2 0 44.93-3.52 53.58-8.5l2.88-4.77 1.15-4.4v5.45l-19 81c0 5.08-17.3 9.1-38.6 9.1-21.33 0-38.6-4.02-38.6-9.1l-19.02-81v-5.35l4.38 9.27c8.76 4.87 29.27 8.3 53.24 8.3z" fill="#8c3123"/><path d="M1638 478.58c32 0 58 6.12 58 13.63 0 7.5-26 13.57-58 13.57s-58-6-58-13.56c0-7.55 26-13.62 58-13.62z" fill="#e05243"/><path d="M1638 515.2c29.84 0 54.4-5.23 57.62-12.08l-19.02 81c0 5.06-17.28 9.1-38.6 9.1-21.33 0-38.6-4.04-38.6-9.1l-19.03-81c3.23 6.85 27.78 12.08 57.62 12.08z" fill="#e05243"/><g><use xlink:href="#C" transform="matrix(1,0,0,1,1580,598.5826771653544) translate(44.41975308641975 17.77777777777778)"/></g><defs><path fill="#3a414a" d="M205 0l-28-72H64L36 0H1l101-248h38L239 0h-34zm-38-99l-47-123c-12 45-31 82-46 123h93" id="D"/><path fill="#3a414a" d="M266 0h-40l-56-210L115 0H75L2-248h35L96-30l15-64 43-154h32l59 218 59-218h35" id="E"/><path fill="#3a414a" d="M185-189c-5-48-123-54-124 2 14 75 158 14 163 119 3 78-121 87-175 55-17-10-28-26-33-46l33-7c5 56 141 63 141-1 0-78-155-14-162-118-5-82 145-84 179-34 5 7 8 16 11 25" id="F"/><g id="a"><use transform="matrix(0.06172839506172839,0,0,0.06172839506172839,0,0)" xlink:href="#D"/><use transform="matrix(0.06172839506172839,0,0,0.06172839506172839,14.012345679012345,0)" xlink:href="#E"/><use transform="matrix(0.06172839506172839,0,0,0.06172839506172839,34.938271604938265,0)" xlink:href="#F"/></g><path fill="#3a414a" d="M96-169c-40 0-48 33-48 73s9 75 48 75c24 0 41-14 43-38l32 2c-6 37-31 61-74 61-59 0-76-41-82-99-10-93 101-131 147-64 4 7 5 14 7 22l-32 3c-4-21-16-35-41-35" id="G"/><path fill="#3a414a" d="M24 0v-261h32V0H24" id="H"/><path fill="#3a414a" d="M100-194c62-1 85 37 85 99 1 63-27 99-86 99S16-35 15-95c0-66 28-99 85-99zM99-20c44 1 53-31 53-75 0-43-8-75-51-75s-53 32-53 75 10 74 51 75" id="I"/><path fill="#3a414a" d="M84 4C-5 8 30-112 23-190h32v120c0 31 7 50 39 49 72-2 45-101 50-169h31l1 190h-30c-1-10 1-25-2-33-11 22-28 36-60 37" id="J"/><path fill="#3a414a" d="M85-194c31 0 48 13 60 33l-1-100h32l1 261h-30c-2-10 0-23-3-31C134-8 116 4 85 4 32 4 16-35 15-94c0-66 23-100 70-100zm9 24c-40 0-46 34-46 75 0 40 6 74 45 74 42 0 51-32 51-76 0-42-9-74-50-73" id="K"/><g id="b"><use transform="matrix(0.06172839506172839,0,0,0.06172839506172839,0,0)" xlink:href="#G"/><use transform="matrix(0.06172839506172839,0,0,0.06172839506172839,11.11111111111111,0)" xlink:href="#H"/><use transform="matrix(0.06172839506172839,0,0,0.06172839506172839,15.987654320987653,0)" xlink:href="#I"/><use transform="matrix(0.06172839506172839,0,0,0.06172839506172839,28.333333333333332,0)" xlink:href="#J"/><use transform="matrix(0.06172839506172839,0,0,0.06172839506172839,40.67901234567901,0)" xlink:href="#K"/></g><path fill="#3a414a" d="M108 0H70L1-190h34L89-25l56-165h34" id="L"/><path fill="#3a414a" d="M24-231v-30h32v30H24zM24 0v-190h32V0H24" id="M"/><path fill="#3a414a" d="M114-163C36-179 61-72 57 0H25l-1-190h30c1 12-1 29 2 39 6-27 23-49 58-41v29" id="N"/><path fill="#3a414a" d="M59-47c-2 24 18 29 38 22v24C64 9 27 4 27-40v-127H5v-23h24l9-43h21v43h35v23H59v120" id="O"/><path fill="#3a414a" d="M141-36C126-15 110 5 73 4 37 3 15-17 15-53c-1-64 63-63 125-63 3-35-9-54-41-54-24 1-41 7-42 31l-33-3c5-37 33-52 76-52 45 0 72 20 72 64v82c-1 20 7 32 28 27v20c-31 9-61-2-59-35zM48-53c0 20 12 33 32 33 41-3 63-29 60-74-43 2-92-5-92 41" id="P"/><g id="c"><use transform="matrix(0.06172839506172839,0,0,0.06172839506172839,0,0)" xlink:href="#L"/><use transform="matrix(0.06172839506172839,0,0,0.06172839506172839,11.11111111111111,0)" xlink:href="#M"/><use transform="matrix(0.06172839506172839,0,0,0.06172839506172839,15.987654320987653,0)" xlink:href="#N"/><use transform="matrix(0.06172839506172839,0,0,0.06172839506172839,23.333333333333332,0)" xlink:href="#O"/><use transform="matrix(0.06172839506172839,0,0,0.06172839506172839,29.50617283950617,0)" xlink:href="#J"/><use transform="matrix(0.06172839506172839,0,0,0.06172839506172839,41.85185185185185,0)" xlink:href="#P"/><use transform="matrix(0.06172839506172839,0,0,0.06172839506172839,54.197530864197525,0)" xlink:href="#H"/></g><path fill="#3a414a" d="M115-194c55 1 70 41 70 98S169 2 115 4C84 4 66-9 55-30l1 105H24l-1-265h31l2 30c10-21 28-34 59-34zm-8 174c40 0 45-34 45-75s-6-73-45-74c-42 0-51 32-51 76 0 43 10 73 51 73" id="Q"/><path fill="#3a414a" d="M100-194c63 0 86 42 84 106H49c0 40 14 67 53 68 26 1 43-12 49-29l28 8c-11 28-37 45-77 45C44 4 14-33 15-96c1-61 26-98 85-98zm52 81c6-60-76-77-97-28-3 7-6 17-6 28h103" id="R"/><g id="d"><use transform="matrix(0.06172839506172839,0,0,0.06172839506172839,0,0)" xlink:href="#Q"/><use transform="matrix(0.06172839506172839,0,0,0.06172839506172839,12.345679012345679,0)" xlink:href="#N"/><use transform="matrix(0.06172839506172839,0,0,0.06172839506172839,19.691358024691358,0)" xlink:href="#M"/><use transform="matrix(0.06172839506172839,0,0,0.06172839506172839,24.5679012345679,0)" xlink:href="#L"/><use transform="matrix(0.06172839506172839,0,0,0.06172839506172839,35.67901234567901,0)" xlink:href="#P"/><use transform="matrix(0.06172839506172839,0,0,0.06172839506172839,48.02469135802469,0)" xlink:href="#O"/><use transform="matrix(0.06172839506172839,0,0,0.06172839506172839,54.19753086419753,0)" xlink:href="#R"/></g><path fill="#3a414a" d="M30-248c87 1 191-15 191 75 0 78-77 80-158 76V0H30v-248zm33 125c57 0 124 11 124-50 0-59-68-47-124-48v98" id="S"/><path fill="#3a414a" d="M115-194c53 0 69 39 70 98 0 66-23 100-70 100C84 3 66-7 56-30L54 0H23l1-261h32v101c10-23 28-34 59-34zm-8 174c40 0 45-34 45-75 0-40-5-75-45-74-42 0-51 32-51 76 0 43 10 73 51 73" id="T"/><g id="e"><use transform="matrix(0.06172839506172839,0,0,0.06172839506172839,0,0)" xlink:href="#S"/><use transform="matrix(0.06172839506172839,0,0,0.06172839506172839,14.814814814814813,0)" xlink:href="#J"/><use transform="matrix(0.06172839506172839,0,0,0.06172839506172839,27.160493827160494,0)" xlink:href="#T"/><use transform="matrix(0.06172839506172839,0,0,0.06172839506172839,39.50617283950617,0)" xlink:href="#H"/><use transform="matrix(0.06172839506172839,0,0,0.06172839506172839,44.382716049382715,0)" xlink:href="#M"/><use transform="matrix(0.06172839506172839,0,0,0.06172839506172839,49.25925925925926,0)" xlink:href="#G"/></g><path fill="#3a414a" d="M135-143c-3-34-86-38-87 0 15 53 115 12 119 90S17 21 10-45l28-5c4 36 97 45 98 0-10-56-113-15-118-90-4-57 82-63 122-42 12 7 21 19 24 35" id="U"/><path fill="#3a414a" d="M117-194c89-4 53 116 60 194h-32v-121c0-31-8-49-39-48C34-167 62-67 57 0H25l-1-190h30c1 10-1 24 2 32 11-22 29-35 61-36" id="V"/><g id="f"><use transform="matrix(0.06172839506172839,0,0,0.06172839506172839,0,0)" xlink:href="#U"/><use transform="matrix(0.06172839506172839,0,0,0.06172839506172839,11.11111111111111,0)" xlink:href="#J"/><use transform="matrix(0.06172839506172839,0,0,0.06172839506172839,23.45679012345679,0)" xlink:href="#T"/><use transform="matrix(0.06172839506172839,0,0,0.06172839506172839,35.80246913580247,0)" xlink:href="#V"/><use transform="matrix(0.06172839506172839,0,0,0.06172839506172839,48.148148148148145,0)" xlink:href="#R"/><use transform="matrix(0.06172839506172839,0,0,0.06172839506172839,60.49382716049382,0)" xlink:href="#O"/></g><path fill="#3a414a" d="M27 0v-27h64v-190l-56 39v-29l58-41h29v221h61V0H27" id="W"/><use transform="matrix(0.06172839506172839,0,0,0.06172839506172839,0,0)" xlink:href="#W" id="g"/><g id="h"><use transform="matrix(0.06172839506172839,0,0,0.06172839506172839,0,0)" xlink:href="#S"/><use transform="matrix(0.06172839506172839,0,0,0.06172839506172839,14.814814814814813,0)" xlink:href="#N"/><use transform="matrix(0.06172839506172839,0,0,0.06172839506172839,22.160493827160494,0)" xlink:href="#M"/><use transform="matrix(0.06172839506172839,0,0,0.06172839506172839,27.037037037037038,0)" xlink:href="#L"/><use transform="matrix(0.06172839506172839,0,0,0.06172839506172839,38.14814814814815,0)" xlink:href="#P"/><use transform="matrix(0.06172839506172839,0,0,0.06172839506172839,50.49382716049383,0)" xlink:href="#O"/><use transform="matrix(0.06172839506172839,0,0,0.06172839506172839,56.66666666666667,0)" xlink:href="#R"/></g><g id="i"><use transform="matrix(0.06172839506172839,0,0,0.06172839506172839,0,0)" xlink:href="#F"/><use transform="matrix(0.06172839506172839,0,0,0.06172839506172839,14.814814814814813,0)" xlink:href="#J"/><use transform="matrix(0.06172839506172839,0,0,0.06172839506172839,27.160493827160494,0)" xlink:href="#T"/><use transform="matrix(0.06172839506172839,0,0,0.06172839506172839,39.50617283950617,0)" xlink:href="#V"/><use transform="matrix(0.06172839506172839,0,0,0.06172839506172839,51.85185185185185,0)" xlink:href="#R"/><use transform="matrix(0.06172839506172839,0,0,0.06172839506172839,64.19753086419753,0)" xlink:href="#O"/></g><path fill="#3a414a" d="M179-190L93 31C79 59 56 82 12 73V49c39 6 53-20 64-50L1-190h34L92-34l54-156h33" id="X"/><g id="j"><use transform="matrix(0.06172839506172839,0,0,0.06172839506172839,0,0)" xlink:href="#D"/><use transform="matrix(0.06172839506172839,0,0,0.06172839506172839,14.382716049382715,0)" xlink:href="#L"/><use transform="matrix(0.06172839506172839,0,0,0.06172839506172839,25.493827160493826,0)" xlink:href="#P"/><use transform="matrix(0.06172839506172839,0,0,0.06172839506172839,37.839506172839506,0)" xlink:href="#M"/><use transform="matrix(0.06172839506172839,0,0,0.06172839506172839,42.71604938271605,0)" xlink:href="#H"/><use transform="matrix(0.06172839506172839,0,0,0.06172839506172839,47.592592592592595,0)" xlink:href="#P"/><use transform="matrix(0.06172839506172839,0,0,0.06172839506172839,59.93827160493827,0)" xlink:href="#T"/><use transform="matrix(0.06172839506172839,0,0,0.06172839506172839,72.28395061728395,0)" xlink:href="#M"/><use transform="matrix(0.06172839506172839,0,0,0.06172839506172839,77.1604938271605,0)" xlink:href="#H"/><use transform="matrix(0.06172839506172839,0,0,0.06172839506172839,82.03703703703704,0)" xlink:href="#M"/><use transform="matrix(0.06172839506172839,0,0,0.06172839506172839,86.91358024691358,0)" xlink:href="#O"/><use transform="matrix(0.06172839506172839,0,0,0.06172839506172839,93.08641975308642,0)" xlink:href="#X"/></g><path fill="#3a414a" d="M209 0H11v-25l151-195H24v-28h176v25L50-27h159V0" id="Y"/><g id="k"><use transform="matrix(0.06172839506172839,0,0,0.06172839506172839,0,0)" xlink:href="#Y"/><use transform="matrix(0.06172839506172839,0,0,0.06172839506172839,13.518518518518517,0)" xlink:href="#I"/><use transform="matrix(0.06172839506172839,0,0,0.06172839506172839,25.864197530864196,0)" xlink:href="#V"/><use transform="matrix(0.06172839506172839,0,0,0.06172839506172839,38.20987654320987,0)" xlink:href="#R"/></g><path fill="#3a414a" d="M101-251c82-7 93 87 43 132L82-64C71-53 59-42 53-27h129V0H18c2-99 128-94 128-182 0-28-16-43-45-43s-46 15-49 41l-32-3c6-41 34-60 81-64" id="Z"/><use transform="matrix(0.06172839506172839,0,0,0.06172839506172839,0,0)" xlink:href="#Z" id="l"/><g id="m"><use transform="matrix(0.06172839506172839,0,0,0.06172839506172839,0,0)" xlink:href="#U"/><use transform="matrix(0.06172839506172839,0,0,0.06172839506172839,11.11111111111111,0)" xlink:href="#R"/><use transform="matrix(0.06172839506172839,0,0,0.06172839506172839,23.45679012345679,0)" xlink:href="#G"/><use transform="matrix(0.06172839506172839,0,0,0.06172839506172839,34.5679012345679,0)" xlink:href="#J"/><use transform="matrix(0.06172839506172839,0,0,0.06172839506172839,46.913580246913575,0)" xlink:href="#N"/><use transform="matrix(0.06172839506172839,0,0,0.06172839506172839,54.25925925925925,0)" xlink:href="#M"/><use transform="matrix(0.06172839506172839,0,0,0.06172839506172839,59.1358024691358,0)" xlink:href="#O"/><use transform="matrix(0.06172839506172839,0,0,0.06172839506172839,65.30864197530863,0)" xlink:href="#X"/></g><path fill="#3a414a" d="M177-190C167-65 218 103 67 71c-23-6-38-20-44-43l32-5c15 47 100 32 89-28v-30C133-14 115 1 83 1 29 1 15-40 15-95c0-56 16-97 71-98 29-1 48 16 59 35 1-10 0-23 2-32h30zM94-22c36 0 50-32 50-73 0-42-14-75-50-75-39 0-46 34-46 75s6 73 46 73" id="aa"/><g id="n"><use transform="matrix(0.06172839506172839,0,0,0.06172839506172839,0,0)" xlink:href="#aa"/><use transform="matrix(0.06172839506172839,0,0,0.06172839506172839,12.345679012345679,0)" xlink:href="#N"/><use transform="matrix(0.06172839506172839,0,0,0.06172839506172839,19.691358024691358,0)" xlink:href="#I"/><use transform="matrix(0.06172839506172839,0,0,0.06172839506172839,32.03703703703704,0)" xlink:href="#J"/><use transform="matrix(0.06172839506172839,0,0,0.06172839506172839,44.382716049382715,0)" xlink:href="#Q"/></g><path fill="#d86613" d="M205 0l-28-72H64L36 0H1l101-248h38L239 0h-34zm-38-99l-47-123c-12 45-31 82-46 123h93" id="ab"/><path fill="#d86613" d="M84 4C-5 8 30-112 23-190h32v120c0 31 7 50 39 49 72-2 45-101 50-169h31l1 190h-30c-1-10 1-25-2-33-11 22-28 36-60 37" id="ac"/><path fill="#d86613" d="M59-47c-2 24 18 29 38 22v24C64 9 27 4 27-40v-127H5v-23h24l9-43h21v43h35v23H59v120" id="ad"/><path fill="#d86613" d="M100-194c62-1 85 37 85 99 1 63-27 99-86 99S16-35 15-95c0-66 28-99 85-99zM99-20c44 1 53-31 53-75 0-43-8-75-51-75s-53 32-53 75 10 74 51 75" id="ae"/><g id="o"><use transform="matrix(0.05,0,0,0.05,0,0)" xlink:href="#ab"/><use transform="matrix(0.05,0,0,0.05,12,0)" xlink:href="#ac"/><use transform="matrix(0.05,0,0,0.05,22,0)" xlink:href="#ad"/><use transform="matrix(0.05,0,0,0.05,27,0)" xlink:href="#ae"/></g><path fill="#d86613" d="M185-189c-5-48-123-54-124 2 14 75 158 14 163 119 3 78-121 87-175 55-17-10-28-26-33-46l33-7c5 56 141 63 141-1 0-78-155-14-162-118-5-82 145-84 179-34 5 7 8 16 11 25" id="af"/><path fill="#d86613" d="M96-169c-40 0-48 33-48 73s9 75 48 75c24 0 41-14 43-38l32 2c-6 37-31 61-74 61-59 0-76-41-82-99-10-93 101-131 147-64 4 7 5 14 7 22l-32 3c-4-21-16-35-41-35" id="ag"/><path fill="#d86613" d="M141-36C126-15 110 5 73 4 37 3 15-17 15-53c-1-64 63-63 125-63 3-35-9-54-41-54-24 1-41 7-42 31l-33-3c5-37 33-52 76-52 45 0 72 20 72 64v82c-1 20 7 32 28 27v20c-31 9-61-2-59-35zM48-53c0 20 12 33 32 33 41-3 63-29 60-74-43 2-92-5-92 41" id="ah"/><path fill="#d86613" d="M24 0v-261h32V0H24" id="ai"/><path fill="#d86613" d="M24-231v-30h32v30H24zM24 0v-190h32V0H24" id="aj"/><path fill="#d86613" d="M117-194c89-4 53 116 60 194h-32v-121c0-31-8-49-39-48C34-167 62-67 57 0H25l-1-190h30c1 10-1 24 2 32 11-22 29-35 61-36" id="ak"/><path fill="#d86613" d="M177-190C167-65 218 103 67 71c-23-6-38-20-44-43l32-5c15 47 100 32 89-28v-30C133-14 115 1 83 1 29 1 15-40 15-95c0-56 16-97 71-98 29-1 48 16 59 35 1-10 0-23 2-32h30zM94-22c36 0 50-32 50-73 0-42-14-75-50-75-39 0-46 34-46 75s6 73 46 73" id="al"/><g id="p"><use transform="matrix(0.05,0,0,0.05,0,0)" xlink:href="#af"/><use transform="matrix(0.05,0,0,0.05,12,0)" xlink:href="#ag"/><use transform="matrix(0.05,0,0,0.05,21,0)" xlink:href="#ah"/><use transform="matrix(0.05,0,0,0.05,31,0)" xlink:href="#ai"/><use transform="matrix(0.05,0,0,0.05,34.95,0)" xlink:href="#aj"/><use transform="matrix(0.05,0,0,0.05,38.900000000000006,0)" xlink:href="#ak"/><use transform="matrix(0.05,0,0,0.05,48.900000000000006,0)" xlink:href="#al"/></g><g id="q"><use transform="matrix(0.06172839506172839,0,0,0.06172839506172839,0,0)" xlink:href="#M"/><use transform="matrix(0.06172839506172839,0,0,0.06172839506172839,4.876543209876543,0)" xlink:href="#V"/><use transform="matrix(0.06172839506172839,0,0,0.06172839506172839,17.22222222222222,0)" xlink:href="#O"/><use transform="matrix(0.06172839506172839,0,0,0.06172839506172839,23.39506172839506,0)" xlink:href="#R"/><use transform="matrix(0.06172839506172839,0,0,0.06172839506172839,35.74074074074074,0)" xlink:href="#N"/><use transform="matrix(0.06172839506172839,0,0,0.06172839506172839,43.08641975308642,0)" xlink:href="#V"/><use transform="matrix(0.06172839506172839,0,0,0.06172839506172839,55.432098765432094,0)" xlink:href="#R"/><use transform="matrix(0.06172839506172839,0,0,0.06172839506172839,67.77777777777777,0)" xlink:href="#O"/></g><path fill="#3a414a" d="M206 0h-36l-40-164L89 0H53L-1-190h32L70-26l43-164h34l41 164 42-164h31" id="am"/><g id="r"><use transform="matrix(0.06172839506172839,0,0,0.06172839506172839,0,0)" xlink:href="#aa"/><use transform="matrix(0.06172839506172839,0,0,0.06172839506172839,12.345679012345679,0)" xlink:href="#P"/><use transform="matrix(0.06172839506172839,0,0,0.06172839506172839,24.691358024691358,0)" xlink:href="#O"/><use transform="matrix(0.06172839506172839,0,0,0.06172839506172839,30.864197530864196,0)" xlink:href="#R"/><use transform="matrix(0.06172839506172839,0,0,0.06172839506172839,43.20987654320987,0)" xlink:href="#am"/><use transform="matrix(0.06172839506172839,0,0,0.06172839506172839,59.197530864197525,0)" xlink:href="#P"/><use transform="matrix(0.06172839506172839,0,0,0.06172839506172839,71.5432098765432,0)" xlink:href="#X"/></g><g id="s"><use transform="matrix(0.06172839506172839,0,0,0.06172839506172839,0,0)" xlink:href="#D"/><use transform="matrix(0.06172839506172839,0,0,0.06172839506172839,14.814814814814813,0)" xlink:href="#Q"/><use transform="matrix(0.06172839506172839,0,0,0.06172839506172839,27.160493827160494,0)" xlink:href="#Q"/><use transform="matrix(0.06172839506172839,0,0,0.06172839506172839,39.50617283950617,0)" xlink:href="#H"/><use transform="matrix(0.06172839506172839,0,0,0.06172839506172839,44.382716049382715,0)" xlink:href="#M"/><use transform="matrix(0.06172839506172839,0,0,0.06172839506172839,49.25925925925926,0)" xlink:href="#G"/><use transform="matrix(0.06172839506172839,0,0,0.06172839506172839,60.37037037037037,0)" xlink:href="#P"/><use transform="matrix(0.06172839506172839,0,0,0.06172839506172839,72.71604938271605,0)" xlink:href="#O"/><use transform="matrix(0.06172839506172839,0,0,0.06172839506172839,78.88888888888889,0)" xlink:href="#M"/><use transform="matrix(0.06172839506172839,0,0,0.06172839506172839,83.76543209876543,0)" xlink:href="#I"/><use transform="matrix(0.06172839506172839,0,0,0.06172839506172839,96.11111111111111,0)" xlink:href="#V"/></g><path fill="#3a414a" d="M30 0v-248h33v221h125V0H30" id="an"/><g id="t"><use transform="matrix(0.06172839506172839,0,0,0.06172839506172839,0,0)" xlink:href="#an"/><use transform="matrix(0.06172839506172839,0,0,0.06172839506172839,12.345679012345679,0)" xlink:href="#I"/><use transform="matrix(0.06172839506172839,0,0,0.06172839506172839,24.691358024691358,0)" xlink:href="#P"/><use transform="matrix(0.06172839506172839,0,0,0.06172839506172839,37.03703703703704,0)" xlink:href="#K"/></g><path fill="#3a414a" d="M160-131c35 5 61 23 61 61C221 17 115-2 30 0v-248c76 3 177-17 177 60 0 33-19 50-47 57zm-97-11c50-1 110 9 110-42 0-47-63-36-110-37v79zm0 115c55-2 124 14 124-45 0-56-70-42-124-44v89" id="ao"/><g id="u"><use transform="matrix(0.06172839506172839,0,0,0.06172839506172839,0,0)" xlink:href="#ao"/><use transform="matrix(0.06172839506172839,0,0,0.06172839506172839,14.814814814814813,0)" xlink:href="#P"/><use transform="matrix(0.06172839506172839,0,0,0.06172839506172839,27.160493827160494,0)" xlink:href="#H"/><use transform="matrix(0.06172839506172839,0,0,0.06172839506172839,32.03703703703704,0)" xlink:href="#P"/><use transform="matrix(0.06172839506172839,0,0,0.06172839506172839,44.382716049382715,0)" xlink:href="#V"/><use transform="matrix(0.06172839506172839,0,0,0.06172839506172839,56.72839506172839,0)" xlink:href="#G"/><use transform="matrix(0.06172839506172839,0,0,0.06172839506172839,67.8395061728395,0)" xlink:href="#R"/><use transform="matrix(0.06172839506172839,0,0,0.06172839506172839,80.18518518518519,0)" xlink:href="#N"/></g><path fill="#3a414a" d="M143 4C61 4 22-44 18-125c-5-107 100-154 193-111 17 8 29 25 37 43l-32 9c-13-25-37-40-76-40-61 0-88 39-88 99 0 61 29 100 91 101 35 0 62-11 79-27v-45h-74v-28h105v86C228-13 192 4 143 4" id="ap"/><g id="v"><use transform="matrix(0.06172839506172839,0,0,0.06172839506172839,0,0)" xlink:href="#ap"/><use transform="matrix(0.06172839506172839,0,0,0.06172839506172839,17.28395061728395,0)" xlink:href="#R"/><use transform="matrix(0.06172839506172839,0,0,0.06172839506172839,29.629629629629626,0)" xlink:href="#V"/><use transform="matrix(0.06172839506172839,0,0,0.06172839506172839,41.9753086419753,0)" xlink:href="#R"/><use transform="matrix(0.06172839506172839,0,0,0.06172839506172839,54.32098765432098,0)" xlink:href="#N"/><use transform="matrix(0.06172839506172839,0,0,0.06172839506172839,61.66666666666666,0)" xlink:href="#P"/><use transform="matrix(0.06172839506172839,0,0,0.06172839506172839,74.01234567901234,0)" xlink:href="#H"/></g><path fill="#3a414a" d="M232-93c-1 65-40 97-104 97C67 4 28-28 28-90v-158h33c8 89-33 224 67 224 102 0 64-133 71-224h33v155" id="aq"/><g id="w"><use transform="matrix(0.06172839506172839,0,0,0.06172839506172839,0,0)" xlink:href="#aq"/><use transform="matrix(0.06172839506172839,0,0,0.06172839506172839,15.987654320987653,0)" xlink:href="#U"/><use transform="matrix(0.06172839506172839,0,0,0.06172839506172839,27.098765432098766,0)" xlink:href="#R"/><use transform="matrix(0.06172839506172839,0,0,0.06172839506172839,39.44444444444444,0)" xlink:href="#N"/><use transform="matrix(0.06172839506172839,0,0,0.06172839506172839,46.79012345679012,0)" xlink:href="#U"/></g><path fill="#3a414a" d="M137 0h-34L2-248h35l83 218 83-218h36" id="ar"/><path fill="#3a414a" d="M212-179c-10-28-35-45-73-45-59 0-87 40-87 99 0 60 29 101 89 101 43 0 62-24 78-52l27 14C228-24 195 4 139 4 59 4 22-46 18-125c-6-104 99-153 187-111 19 9 31 26 39 46" id="as"/><g id="x"><use transform="matrix(0.06172839506172839,0,0,0.06172839506172839,0,0)" xlink:href="#ar"/><use transform="matrix(0.06172839506172839,0,0,0.06172839506172839,14.814814814814813,0)" xlink:href="#S"/><use transform="matrix(0.06172839506172839,0,0,0.06172839506172839,29.629629629629626,0)" xlink:href="#as"/></g><path fill="#3a414a" d="M190 0L58-211 59 0H30v-248h39L202-35l-2-213h31V0h-41" id="at"/><path fill="#3a414a" d="M127-220V0H93v-220H8v-28h204v28h-85" id="au"/><g id="y"><use transform="matrix(0.06172839506172839,0,0,0.06172839506172839,0,0)" xlink:href="#at"/><use transform="matrix(0.06172839506172839,0,0,0.06172839506172839,15.987654320987653,0)" xlink:href="#D"/><use transform="matrix(0.06172839506172839,0,0,0.06172839506172839,29.1358024691358,0)" xlink:href="#au"/></g><g id="z"><use transform="matrix(0.06172839506172839,0,0,0.06172839506172839,0,0)" xlink:href="#E"/><use transform="matrix(0.06172839506172839,0,0,0.06172839506172839,20.925925925925924,0)" xlink:href="#E"/><use transform="matrix(0.06172839506172839,0,0,0.06172839506172839,41.85185185185185,0)" xlink:href="#E"/></g><g id="A"><use transform="matrix(0.06172839506172839,0,0,0.06172839506172839,0,0)" xlink:href="#N"/><use transform="matrix(0.06172839506172839,0,0,0.06172839506172839,7.345679012345679,0)" xlink:href="#I"/><use transform="matrix(0.06172839506172839,0,0,0.06172839506172839,19.691358024691358,0)" xlink:href="#J"/><use transform="matrix(0.06172839506172839,0,0,0.06172839506172839,32.03703703703704,0)" xlink:href="#O"/><use transform="matrix(0.06172839506172839,0,0,0.06172839506172839,38.20987654320988,0)" xlink:href="#R"/></g><g id="B"><use transform="matrix(0.06172839506172839,0,0,0.06172839506172839,0,0)" xlink:href="#O"/><use transform="matrix(0.06172839506172839,0,0,0.06172839506172839,6.172839506172839,0)" xlink:href="#P"/><use transform="matrix(0.06172839506172839,0,0,0.06172839506172839,18.51851851851852,0)" xlink:href="#T"/><use transform="matrix(0.06172839506172839,0,0,0.06172839506172839,30.864197530864196,0)" xlink:href="#H"/><use transform="matrix(0.06172839506172839,0,0,0.06172839506172839,35.74074074074074,0)" xlink:href="#R"/></g><path fill="#3a414a" d="M126-127c33 6 58 20 58 59 0 88-139 92-164 29-3-8-5-16-6-25l32-3c6 27 21 44 54 44 32 0 52-15 52-46 0-38-36-46-79-43v-28c39 1 72-4 72-42 0-27-17-43-46-43-28 0-47 15-49 41l-32-3c6-42 35-63 81-64 48-1 79 21 79 65 0 36-21 52-52 59" id="av"/><g id="C"><use transform="matrix(0.06172839506172839,0,0,0.06172839506172839,0,0)" xlink:href="#F"/><use transform="matrix(0.06172839506172839,0,0,0.06172839506172839,14.814814814814813,0)" xlink:href="#av"/></g></defs></g></svg>